<mxfile host="app.diagrams.net" agent="Mozilla/5.0 (Macintosh; Intel Mac OS X 10_15_7) AppleWebKit/537.36 (KHTML, like Gecko) Chrome/135.0.0.0 Safari/537.36" version="26.2.14">
  <diagram name="Page-1" id="nWlHqvV7eh-pWw9LbKS5">
    <mxGraphModel dx="1923" dy="486" grid="1" gridSize="10" guides="1" tooltips="1" connect="1" arrows="1" fold="1" page="1" pageScale="1" pageWidth="1100" pageHeight="850" math="0" shadow="0">
      <root>
        <mxCell id="0" />
        <mxCell id="1" parent="0" />
        <mxCell id="H5pKfm3FKRlipIxC1Xya-1" value="" style="rounded=1;whiteSpace=wrap;html=1;arcSize=8;" parent="1" vertex="1">
          <mxGeometry x="610" y="832" width="190" height="215" as="geometry" />
        </mxCell>
        <mxCell id="H5pKfm3FKRlipIxC1Xya-2" value="" style="rounded=1;whiteSpace=wrap;html=1;arcSize=6;" parent="1" vertex="1">
          <mxGeometry x="170" y="790" width="310" height="330" as="geometry" />
        </mxCell>
        <mxCell id="H5pKfm3FKRlipIxC1Xya-3" style="edgeStyle=orthogonalEdgeStyle;rounded=0;orthogonalLoop=1;jettySize=auto;html=1;startArrow=block;startFill=1;endArrow=block;endFill=1;" parent="1" edge="1">
          <mxGeometry relative="1" as="geometry">
            <mxPoint x="218" y="940" as="sourcePoint" />
            <mxPoint x="-40" y="940" as="targetPoint" />
          </mxGeometry>
        </mxCell>
        <mxCell id="H5pKfm3FKRlipIxC1Xya-4" style="edgeStyle=orthogonalEdgeStyle;rounded=0;orthogonalLoop=1;jettySize=auto;html=1;exitX=1;exitY=0.5;exitDx=0;exitDy=0;entryX=0;entryY=0.5;entryDx=0;entryDy=0;startArrow=block;startFill=1;endArrow=block;endFill=1;" parent="1" source="H5pKfm3FKRlipIxC1Xya-5" target="H5pKfm3FKRlipIxC1Xya-1" edge="1">
          <mxGeometry relative="1" as="geometry">
            <mxPoint x="570" y="940" as="targetPoint" />
          </mxGeometry>
        </mxCell>
        <mxCell id="H5pKfm3FKRlipIxC1Xya-5" value="" style="rounded=1;whiteSpace=wrap;html=1;" parent="1" vertex="1">
          <mxGeometry x="217.5" y="820" width="205" height="240" as="geometry" />
        </mxCell>
        <mxCell id="H5pKfm3FKRlipIxC1Xya-6" value="&lt;b&gt;dnsmasq&lt;/b&gt;&lt;div&gt;(DNS, DHCP)&lt;/div&gt;" style="shape=rectangle;whiteSpace=wrap;html=1;" parent="1" vertex="1">
          <mxGeometry x="250" y="830" width="140" height="60" as="geometry" />
        </mxCell>
        <mxCell id="H5pKfm3FKRlipIxC1Xya-7" value="&lt;b&gt;iptables&lt;/b&gt;&lt;div&gt;(NAT, Forwarding, IP Filtering)&lt;/div&gt;" style="shape=rectangle;whiteSpace=wrap;html=1;" parent="1" vertex="1">
          <mxGeometry x="250" y="910" width="140" height="60" as="geometry" />
        </mxCell>
        <mxCell id="H5pKfm3FKRlipIxC1Xya-8" value="&lt;b&gt;Twingate&lt;/b&gt;&lt;div&gt;(SDWAN proxy)&lt;/div&gt;" style="shape=rectangle;whiteSpace=wrap;html=1;" parent="1" vertex="1">
          <mxGeometry x="250" y="990" width="140" height="60" as="geometry" />
        </mxCell>
        <mxCell id="H5pKfm3FKRlipIxC1Xya-9" value="&lt;span style=&quot;background-color: initial;&quot;&gt;LAN1 = 192.168.210.193&lt;/span&gt;" style="rounded=1;whiteSpace=wrap;html=1;fillColor=#FFF2CC;" parent="1" vertex="1">
          <mxGeometry x="180" y="778" width="150" height="30" as="geometry" />
        </mxCell>
        <mxCell id="H5pKfm3FKRlipIxC1Xya-10" value="&lt;font style=&quot;font-size: 24px;&quot;&gt;Twingate Gateway&lt;/font&gt;&lt;div&gt;&lt;font style=&quot;font-size: 16px;&quot;&gt;(Linux VM)&lt;/font&gt;&lt;/div&gt;" style="text;html=1;align=center;verticalAlign=middle;whiteSpace=wrap;rounded=0;" parent="1" vertex="1">
          <mxGeometry x="225" y="1054" width="200" height="70" as="geometry" />
        </mxCell>
        <mxCell id="H5pKfm3FKRlipIxC1Xya-11" value="&lt;font style=&quot;font-size: 24px;&quot;&gt;WAN&lt;/font&gt;" style="text;html=1;align=center;verticalAlign=middle;whiteSpace=wrap;rounded=0;" parent="1" vertex="1">
          <mxGeometry x="101" y="908" width="80" height="40" as="geometry" />
        </mxCell>
        <mxCell id="H5pKfm3FKRlipIxC1Xya-12" value="&lt;font style=&quot;font-size: 24px;&quot;&gt;LAN&lt;/font&gt;" style="text;html=1;align=center;verticalAlign=middle;whiteSpace=wrap;rounded=0;" parent="1" vertex="1">
          <mxGeometry x="465" y="908" width="80" height="40" as="geometry" />
        </mxCell>
        <mxCell id="H5pKfm3FKRlipIxC1Xya-13" value="" style="group" parent="1" vertex="1" connectable="0">
          <mxGeometry x="-350" y="879" width="140" height="80" as="geometry" />
        </mxCell>
        <mxCell id="H5pKfm3FKRlipIxC1Xya-14" value="" style="html=1;verticalLabelPosition=bottom;align=center;labelBackgroundColor=#ffffff;verticalAlign=top;strokeWidth=2;strokeColor=#000000;shadow=0;dashed=0;shape=mxgraph.ios7.icons.cloud;" parent="H5pKfm3FKRlipIxC1Xya-13" vertex="1">
          <mxGeometry width="140" height="80" as="geometry" />
        </mxCell>
        <mxCell id="H5pKfm3FKRlipIxC1Xya-15" value="Internet&lt;div&gt;&amp;amp;&lt;br&gt;&lt;div&gt;Private Resources&lt;/div&gt;&lt;/div&gt;" style="text;html=1;align=center;verticalAlign=middle;whiteSpace=wrap;rounded=0;" parent="H5pKfm3FKRlipIxC1Xya-13" vertex="1">
          <mxGeometry x="15" y="34" width="110" height="30" as="geometry" />
        </mxCell>
        <mxCell id="H5pKfm3FKRlipIxC1Xya-16" value="" style="points=[[0.22,0.185,0],[0.5,0,0],[0.78,0.185,0],[0.975,0.49,0],[1,0.73,0],[0.975,0.97,0],[0.5,1,0],[0.025,0.97,0],[0,0.73,0],[0.025,0.49,0]];verticalLabelPosition=bottom;sketch=0;html=1;verticalAlign=top;aspect=fixed;align=center;pointerEvents=1;shape=mxgraph.cisco19.printer;fillColor=#005073;strokeColor=none;" parent="1" vertex="1">
          <mxGeometry x="637.25" y="926" width="50" height="45" as="geometry" />
        </mxCell>
        <mxCell id="H5pKfm3FKRlipIxC1Xya-17" value="" style="sketch=0;pointerEvents=1;shadow=0;dashed=0;html=1;strokeColor=none;fillColor=#505050;labelPosition=center;verticalLabelPosition=bottom;verticalAlign=top;outlineConnect=0;align=center;shape=mxgraph.office.devices.tv;" parent="1" vertex="1">
          <mxGeometry x="632.75" y="862" width="59" height="45" as="geometry" />
        </mxCell>
        <mxCell id="H5pKfm3FKRlipIxC1Xya-18" value="" style="shape=image;html=1;verticalAlign=top;verticalLabelPosition=bottom;labelBackgroundColor=#ffffff;imageAspect=0;aspect=fixed;image=https://cdn1.iconfinder.com/data/icons/ionicons-fill-vol-2/512/logo-xbox-128.png" parent="1" vertex="1">
          <mxGeometry x="711.25" y="919.5" width="58" height="58" as="geometry" />
        </mxCell>
        <mxCell id="H5pKfm3FKRlipIxC1Xya-19" value="" style="shape=image;html=1;verticalAlign=top;verticalLabelPosition=bottom;labelBackgroundColor=#ffffff;imageAspect=0;aspect=fixed;image=https://cdn4.iconfinder.com/data/icons/miu-black-social-2/60/playstation-128.png" parent="1" vertex="1">
          <mxGeometry x="712.75" y="857" width="55" height="55" as="geometry" />
        </mxCell>
        <mxCell id="H5pKfm3FKRlipIxC1Xya-20" value="TV" style="text;html=1;align=center;verticalAlign=middle;whiteSpace=wrap;rounded=0;" parent="1" vertex="1">
          <mxGeometry x="632.75" y="864" width="60" height="30" as="geometry" />
        </mxCell>
        <mxCell id="H5pKfm3FKRlipIxC1Xya-21" value="Local devices that &lt;b&gt;require&lt;/b&gt; DHCP&lt;div&gt;(ethernet or wireless)&lt;/div&gt;" style="text;html=1;align=center;verticalAlign=middle;whiteSpace=wrap;rounded=0;" parent="1" vertex="1">
          <mxGeometry x="637.25" y="987" width="122" height="60" as="geometry" />
        </mxCell>
        <mxCell id="H5pKfm3FKRlipIxC1Xya-22" value="" style="rounded=1;whiteSpace=wrap;html=1;arcSize=7;" parent="1" vertex="1">
          <mxGeometry x="225" y="1178" width="178.5" height="220" as="geometry" />
        </mxCell>
        <mxCell id="H5pKfm3FKRlipIxC1Xya-23" value="Local devices that &lt;b&gt;do not&amp;nbsp;require&lt;/b&gt; DHCP&lt;div&gt;(ethernet or wireless)&lt;/div&gt;" style="text;html=1;align=center;verticalAlign=middle;whiteSpace=wrap;rounded=0;" parent="1" vertex="1">
          <mxGeometry x="252.25" y="1337" width="122" height="60" as="geometry" />
        </mxCell>
        <mxCell id="H5pKfm3FKRlipIxC1Xya-24" value="" style="verticalLabelPosition=bottom;html=1;verticalAlign=top;align=center;strokeColor=none;fillColor=#000000;shape=mxgraph.azure.computer;pointerEvents=1;" parent="1" vertex="1">
          <mxGeometry x="252.25" y="1207" width="50" height="45" as="geometry" />
        </mxCell>
        <mxCell id="H5pKfm3FKRlipIxC1Xya-25" value="" style="verticalLabelPosition=bottom;html=1;verticalAlign=top;align=center;strokeColor=none;fillColor=#000000;shape=mxgraph.azure.mobile;pointerEvents=1;" parent="1" vertex="1">
          <mxGeometry x="324.25" y="1204.5" width="35" height="50" as="geometry" />
        </mxCell>
        <mxCell id="H5pKfm3FKRlipIxC1Xya-26" value="" style="shape=image;html=1;verticalAlign=top;verticalLabelPosition=bottom;labelBackgroundColor=#ffffff;imageAspect=0;aspect=fixed;image=https://cdn1.iconfinder.com/data/icons/fruit-136/64/Fruit_iconfree_Filled_Outline_raspberry-healthy-organic-food-fruit_icon-128.png" parent="1" vertex="1">
          <mxGeometry x="248.25" y="1277" width="58" height="58" as="geometry" />
        </mxCell>
        <mxCell id="H5pKfm3FKRlipIxC1Xya-27" value="" style="endArrow=block;startArrow=block;html=1;rounded=0;exitX=0;exitY=0.5;exitDx=0;exitDy=0;startFill=1;endFill=1;" parent="1" source="H5pKfm3FKRlipIxC1Xya-22" edge="1">
          <mxGeometry width="50" height="50" relative="1" as="geometry">
            <mxPoint x="28" y="1010" as="sourcePoint" />
            <mxPoint x="-40" y="940" as="targetPoint" />
            <Array as="points">
              <mxPoint x="90" y="1288" />
              <mxPoint x="90" y="940" />
            </Array>
          </mxGeometry>
        </mxCell>
        <mxCell id="H5pKfm3FKRlipIxC1Xya-28" value="&lt;div&gt;&lt;span style=&quot;color: rgb(0, 0, 0); font-family: Helvetica; font-size: 12px; font-style: normal; font-variant-ligatures: normal; font-variant-caps: normal; font-weight: 400; letter-spacing: normal; orphans: 2; text-align: center; text-indent: 0px; text-transform: none; widows: 2; word-spacing: 0px; -webkit-text-stroke-width: 0px; white-space: normal; background-color: rgb(251, 251, 251); text-decoration-thickness: initial; text-decoration-style: initial; text-decoration-color: initial; display: inline !important; float: none;&quot;&gt;DHCP&lt;/span&gt;&lt;/div&gt;&lt;div&gt;&lt;span style=&quot;color: rgb(0, 0, 0); font-family: Helvetica; font-size: 12px; font-style: normal; font-variant-ligatures: normal; font-variant-caps: normal; font-weight: 400; letter-spacing: normal; orphans: 2; text-align: center; text-indent: 0px; text-transform: none; widows: 2; word-spacing: 0px; -webkit-text-stroke-width: 0px; white-space: normal; background-color: rgb(251, 251, 251); text-decoration-thickness: initial; text-decoration-style: initial; text-decoration-color: initial; display: inline !important; float: none;&quot;&gt;192.168.100.100-150&lt;/span&gt;&lt;/div&gt;" style="text;whiteSpace=wrap;html=1;" parent="1" vertex="1">
          <mxGeometry x="481.25" y="939.5" width="118.75" height="20.5" as="geometry" />
        </mxCell>
        <mxCell id="H5pKfm3FKRlipIxC1Xya-29" value="" style="endArrow=block;startArrow=block;html=1;rounded=0;startFill=1;endFill=1;" parent="1" edge="1">
          <mxGeometry width="50" height="50" relative="1" as="geometry">
            <mxPoint x="-208" y="940" as="sourcePoint" />
            <mxPoint x="-150" y="940" as="targetPoint" />
          </mxGeometry>
        </mxCell>
        <mxCell id="H5pKfm3FKRlipIxC1Xya-30" value="" style="sketch=0;verticalLabelPosition=bottom;sketch=0;aspect=fixed;html=1;verticalAlign=top;strokeColor=none;fillColor=#000000;align=center;outlineConnect=0;pointerEvents=1;shape=mxgraph.citrix2.wifi_router;" parent="1" vertex="1">
          <mxGeometry x="-146.89" y="860" width="104.79" height="105" as="geometry" />
        </mxCell>
        <mxCell id="H5pKfm3FKRlipIxC1Xya-31" value="&lt;span style=&quot;color: rgb(0, 0, 0); font-family: Helvetica; font-size: 12px; font-style: normal; font-variant-ligatures: normal; font-variant-caps: normal; font-weight: 400; letter-spacing: normal; orphans: 2; text-align: center; text-indent: 0px; text-transform: none; widows: 2; word-spacing: 0px; -webkit-text-stroke-width: 0px; white-space: normal; background-color: rgb(251, 251, 251); text-decoration-thickness: initial; text-decoration-style: initial; text-decoration-color: initial; display: inline !important; float: none;&quot;&gt;192.168.210.0/24&lt;/span&gt;" style="text;whiteSpace=wrap;html=1;" parent="1" vertex="1">
          <mxGeometry x="-10" y="939.5" width="100" height="30.5" as="geometry" />
        </mxCell>
        <mxCell id="H5pKfm3FKRlipIxC1Xya-32" value="&lt;span style=&quot;background-color: initial;&quot;&gt;LAN1 = 192.168.210.0/24&lt;/span&gt;" style="rounded=1;whiteSpace=wrap;html=1;fillColor=#FFF2CC;" parent="1" vertex="1">
          <mxGeometry x="238.25" y="1168" width="150" height="30" as="geometry" />
        </mxCell>
        <mxCell id="H5pKfm3FKRlipIxC1Xya-33" value="&lt;span style=&quot;background-color: initial;&quot;&gt;LAN2 = 192.168.100.100-150&lt;/span&gt;" style="rounded=1;whiteSpace=wrap;html=1;fillColor=#FFF2CC;" parent="1" vertex="1">
          <mxGeometry x="626" y="820" width="160" height="30" as="geometry" />
        </mxCell>
      </root>
    </mxGraphModel>
  </diagram>
</mxfile>
